:FULLY-SPECIFIED
:FORCE-ALL-JOINTS-BE-3DOF
:DEGREES
340
root 7.86947 15.9974 -20.3175 8.69479 24.1779 4.04636
lfemur -17.5738 25.247 -12.3479
ltibia 46.9283 -0 0
lfoot -18.189 19.1047 0.00512362
ltoes -23.7935 0 0
rfemur -44.3952 -7.39976 2.34673
rtibia 53.0508 -0 0
rfoot 3.47847 -13.759 -0.723324
rtoes 32.409 -0 0
lowerback 5.26424 -0.216489 -2.07335
upperback 3.44362 -0.350359 -0.64738
thorax 0.610893 -0.197372 0.505175
lowerneck -4.81232 -9.77911 2.75435
upperneck -5.75979 -12.9685 6.12862
head -0.742808 -6.55565 1.39903
lclavicle -2.70178e-14 1.08069e-14 3.01951e-31
lhumerus -48.4579 -47.044 111.197
lradius 59.4341 -0 0
lwrist 15.6826 0 0
lhand 6.81143 11.6843 0.440778
lfingers 7.12502 -0 0
lthumb 32.0278 38.2245 0.244063
rclavicle -2.70178e-14 1.08069e-14 3.01951e-31
rhumerus -7.64395 12.1122 -60.8089
rradius 78.8656 -0 0
rwrist -4.99945 0 0
rhand -35.7081 -31.1451 0.225011
rfingers 7.12502 -0 0
rthumb -8.82803 -60.5955 0.229712
341
root 7.7831 16.0211 -20.0899 8.62817 22.5501 3.61673
lfemur -18.2157 25.4096 -12.2099
ltibia 47.6465 -0 0
lfoot -18.0638 19.0726 -0.00694342
ltoes -23.6752 0 0
rfemur -43.9873 -7.33131 2.87707
rtibia 52.7821 -0 0
rfoot 2.81331 -13.333 -0.784536
rtoes 31.896 -0 0
lowerback 5.23974 -0.124017 -1.90515
upperback 3.41276 -0.222321 -0.562019
thorax 0.588701 -0.132545 0.492109
lowerneck -4.92326 -9.53549 2.84881
upperneck -5.72666 -12.6583 6.00839
head -0.73397 -6.39794 1.35353
lclavicle -2.72302e-14 9.95028e-15 3.53507e-31
lhumerus -48.1901 -46.4958 110.77
lradius 59.3905 -0 0
lwrist 15.8228 0 0
lhand 6.0051 11.4632 0.477672
lfingers 7.12502 -0 0
lthumb 31.2559 38.1112 0.265272
rclavicle -2.72302e-14 9.95028e-15 3.53507e-31
rhumerus -7.76094 12.0299 -61.2428
rradius 78.5698 -0 0
rwrist -4.9121 0 0
rhand -35.1001 -31.1699 0.265193
rfingers 7.12502 -0 0
rthumb -8.24147 -60.6108 0.269272
342
root 7.69517 16.0452 -19.8582 8.57251 20.9076 3.18994
lfemur -18.8798 25.5653 -12.0763
ltibia 48.3946 -0 0
lfoot -17.9311 19.0005 -0.0208583
ltoes -23.4936 0 0
rfemur -43.5635 -7.25969 3.44033
rtibia 52.5045 -0 0
rfoot 2.12774 -12.895 -0.84239
rtoes 31.3725 -0 0
lowerback 5.21609 -0.0324401 -1.73408
upperback 3.38178 -0.095381 -0.476146
thorax 0.566021 -0.0682428 0.478042
lowerneck -5.03591 -9.28533 2.93921
upperneck -5.68633 -12.34 5.88536
head -0.72232 -6.23595 1.30754
lclavicle -2.74267e-14 9.06818e-15 4.08309e-31
lhumerus -47.9171 -45.9229 110.329
lradius 59.346 -0 0
lwrist 15.9682 0 0
lhand 5.1779 11.2352 0.512442
lfingers 7.12502 -0 0
lthumb 30.464 37.9936 0.28545
rclavicle -2.74267e-14 9.06818e-15 4.08309e-31
rhumerus -7.92415 11.9619 -61.7183
rradius 78.2572 -0 0
rwrist -4.80573 0 0
rhand -34.4659 -31.1762 0.307751
rfingers 7.12502 -0 0
rthumb -7.6296 -60.6077 0.311024
343
root 7.60612 16.0695 -19.6235 8.52767 19.2546 2.7664
lfemur -19.5652 25.7134 -11.9476
ltibia 49.1715 -0 0
lfoot -17.7908 18.887 -0.0364944
ltoes -23.2473 0 0
rfemur -43.1242 -7.18542 4.03612
rtibia 52.2185 -0 0
rfoot 1.42299 -12.4458 -0.896351
rtoes 30.8394 -0 0
lowerback 5.1934 0.0579468 -1.56051
upperback 3.35075 0.0300593 -0.389985
thorax 0.542898 -0.004666 0.462977
lowerneck -5.15004 -9.02912 3.02513
upperneck -5.63868 -12.014 5.75985
head -0.707796 -6.07 1.2612
lclavicle -2.76061e-14 8.16219e-15 4.65952e-31
lhumerus -47.64 -45.3258 109.878
lradius 59.3007 -0 0
lwrist 16.1186 0 0
lhand 4.33143 11.0006 0.544764
lfingers 7.12502 -0 0
lthumb 29.6538 37.8718 0.304414
rclavicle -2.76061e-14 8.16219e-15 4.65952e-31
rhumerus -8.1349 11.9082 -62.2354
rradius 77.928 -0 0
rwrist -4.67996 0 0
rhand -33.8063 -31.1633 0.352336
rfingers 7.12502 -0 0
rthumb -6.99323 -60.5855 0.354622
344
root 7.51639 16.0941 -19.3871 8.49343 17.5954 2.34648
lfemur -20.2707 25.8531 -11.8241
ltibia 49.9762 -0 0
lfoot -17.6431 18.7311 -0.0537037
ltoes -22.9343 0 0
rfemur -42.6701 -7.10908 4.66407
rtibia 51.9246 -0 0
rfoot 0.700333 -11.9864 -0.945916
rtoes 30.2979 -0 0
lowerback 5.17174 0.146846 -1.38482
upperback 3.31976 0.153599 -0.303756
thorax 0.519379 0.0579831 0.446921
lowerneck -5.26544 -8.76734 3.10616
upperneck -5.58361 -11.6811 5.63218
head -0.690333 -5.9004 1.21462
lclavicle -2.77675e-14 7.23391e-15 5.25966e-31
lhumerus -47.3599 -44.7054 109.416
lradius 59.2548 -0 0
lwrist 16.2738 0 0
lhand 3.46731 10.7601 0.574335
lfingers 7.12502 -0 0
lthumb 28.8267 37.746 0.321989
rclavicle -2.77675e-14 7.23391e-15 5.25966e-31
rhumerus -8.39453 11.8685 -62.7943
rradius 77.5827 -0 0
rwrist -4.53442 0 0
rhand -33.1222 -31.1305 0.398555
rfingers 7.12502 -0 0
rthumb -6.33319 -60.5436 0.399684
345
root 7.42641 16.1188 -19.15 8.46949 15.9342 1.93055
lfemur -20.9952 25.9837 -11.7062
ltibia 50.8076 -0 0
lfoot -17.4882 18.5315 -0.0723159
ltoes -22.553 0 0
rfemur -42.2016 -7.03119 5.32378
rtibia 51.6231 -0 0
rfoot -0.0389861 -11.5176 -0.99061
rtoes 29.7491 -0 0
lowerback 5.15119 0.233959 -1.20739
upperback 3.28887 0.274837 -0.217681
thorax 0.49551 0.119503 0.429878
lowerneck -5.38187 -8.50051 3.18191
upperneck -5.52102 -11.3417 5.50267
head -0.669865 -5.72744 1.16793
lclavicle -2.79095e-14 6.28494e-15 5.87811e-31
lhumerus -47.0778 -44.0622 108.946
lradius 59.2083 -0 0
lwrist 16.4335 0 0
lhand 2.58717 10.5139 0.60087
lfingers 7.12502 -0 0
lthumb 27.9844 37.6166 0.338007
rclavicle -2.79095e-14 6.28494e-15 5.87811e-31
rhumerus -8.70445 11.8427 -63.3952
rradius 77.2213 -0 0
rwrist -4.36873 0 0
rhand -32.4144 -31.077 0.445976
rfingers 7.12502 -0 0
rthumb -5.65029 -60.4812 0.445788
346
root 7.33662 16.1435 -18.9135 8.45546 14.2752 1.51893
lfemur -21.7375 26.1044 -11.5942
ltibia 51.6646 -0 0
lfoot -17.326 18.2868 -0.092138
ltoes -22.1017 0 0
rfemur -41.7193 -6.95233 6.01485
rtibia 51.3147 -0 0
rfoot -0.793695 -11.0403 -1.02999
rtoes 29.1941 -0 0
lowerback 5.13185 0.318987 -1.02859
upperback 3.25815 0.393371 -0.131979
thorax 0.471338 0.179691 0.411855
lowerneck -5.49913 -8.22911 3.25199
upperneck -5.45077 -10.9965 5.37163
head -0.646327 -5.55144 1.12126
lclavicle -2.80312e-14 5.31688e-15 6.50883e-31
lhumerus -46.7948 -43.3969 108.467
lradius 59.1613 -0 0
lwrist 16.5975 0 0
lhand 1.69262 10.2625 0.62411
lfingers 7.12502 -0 0
lthumb 27.1282 37.4836 0.352312
rclavicle -2.80312e-14 5.31688e-15 6.50883e-31
rhumerus -9.0661 11.8303 -64.0383
rradius 76.8443 -0 0
rwrist -4.18252 0 0
rhand -31.6838 -31.0022 0.494125
rfingers 7.12502 -0 0
rthumb -4.94534 -60.3977 0.492474
347
root 7.24746 16.1682 -18.6786 8.45091 12.6227 1.11199
lfemur -22.4967 26.2143 -11.4885
ltibia 52.5462 -0 0
lfoot -17.1566 17.996 -0.112954
ltoes -21.5786 0 0
rfemur -41.2238 -6.87305 6.7369
rtibia 50.9997 -0 0
rfoot -1.56252 -10.5554 -1.06367
rtoes 28.6341 -0 0
lowerback 5.11377 0.40163 -0.848816
upperback 3.22766 0.508798 -0.04687
thorax 0.44691 0.238346 0.392857
lowerneck -5.61702 -7.95365 3.31599
upperneck -5.37274 -10.6461 5.23941
head -0.61965 -5.37269 1.07475
lclavicle -2.81313e-14 4.33134e-15 7.14512e-31
lhumerus -46.5118 -42.7102 107.982
lradius 59.1139 -0 0
lwrist 16.7655 0 0
lhand 0.785291 10.0065 0.643817
lfingers 7.12502 -0 0
lthumb 26.2599 37.3473 0.364755
rclavicle -2.81313e-14 4.33134e-15 7.14512e-31
rhumerus -9.48096 11.8309 -64.724
rradius 76.4519 -0 0
rwrist -3.97542 0 0
rhand -30.9312 -30.9053 0.542488
rfingers 7.12502 -0 0
rthumb -4.21916 -60.2924 0.539245
